<svg width="244" height="156" viewBox="0 0 244 156" fill="none" xmlns="http://www.w3.org/2000/svg">
<path d="M166.24 146.52L193.61 87.38C194.07 86.38 195.07 85.75 196.16 85.75H242.01C243.26 85.75 244.09 87.04 243.57 88.18L216.55 147.66L166.24 146.52Z" fill="#C4C4C4"/>
<path d="M196.26 89.37L170.76 145.26H214.15L238.73 90.5C239.13 89.6 238.48 88.58 237.49 88.58H197.5C196.97 88.57 196.48 88.88 196.26 89.37Z" fill="white"/>
<path d="M132.89 145.64H128.39V144.48C128.39 143.84 128.91 143.33 129.54 143.33H131.74C132.38 143.33 132.89 143.85 132.89 144.48V145.64Z" fill="#6B6B6B"/>
<path d="M151.87 145.64H147.37V144.48C147.37 143.84 147.89 143.33 148.52 143.33H150.72C151.36 143.33 151.87 143.85 151.87 144.48V145.64Z" fill="#6B6B6B"/>
<path d="M142.18 145.64H137.68C137.68 145 138.2 144.49 138.83 144.49H141.03C141.66 144.48 142.18 145 142.18 145.64Z" fill="#6B6B6B"/>
<path d="M182.75 22.69L182.35 33.32L190.47 25.53L182.75 22.69Z" fill="#333333"/>
<path d="M194.37 114.18H199.41C199.71 114.18 199.98 114.35 200.11 114.62L201.99 118.5C202.22 118.98 202.85 119.09 203.23 118.72L212.65 109.64C212.8 109.5 212.99 109.42 213.19 109.42H219.54C220.23 109.42 220.58 110.25 220.1 110.75L201.23 129.96C200.84 130.35 200.18 130.23 199.96 129.73L193.65 115.27C193.43 114.76 193.81 114.18 194.37 114.18Z" fill="#008000"/>
<path d="M159.03 128.55C158.93 128.55 158.84 128.5 158.78 128.42C158.69 128.29 149.96 115.25 147.78 97.19C146.5 86.58 147.71 76.33 151.36 66.74C155.92 54.76 164.33 43.77 176.36 34.09C176.49 33.99 176.68 34.01 176.78 34.14C176.88 34.27 176.86 34.46 176.73 34.56C164.79 44.17 156.44 55.07 151.92 66.95C148.3 76.45 147.11 86.59 148.37 97.11C150.52 115.03 159.18 127.97 159.27 128.1C159.36 128.24 159.33 128.42 159.19 128.51C159.15 128.53 159.09 128.55 159.03 128.55Z" fill="black"/>
<path d="M174.89 98.49C174.79 98.49 174.68 98.43 174.63 98.34C174.59 98.27 170.53 90.83 169.2 79.69C167.97 69.4 168.88 53.74 180.18 37.57C180.27 37.43 180.46 37.4 180.59 37.5C180.72 37.59 180.76 37.78 180.66 37.91C169.48 53.92 168.58 69.41 169.78 79.59C171.09 90.63 175.1 97.98 175.14 98.05C175.22 98.19 175.17 98.38 175.02 98.45C174.98 98.47 174.93 98.49 174.89 98.49Z" fill="black"/>
<path d="M171.6 19.26L182.75 24.01L195.41 35.56L208.41 3.95001L171.6 19.26Z" fill="#FFFF00"/>
<path d="M208.238 3.73031L182.568 23.7931L182.931 24.2579L208.601 4.19517L208.238 3.73031Z" fill="white"/>
<path d="M214.15 150.06H114.5C113.17 150.06 112.1 148.99 112.1 147.66C112.1 146.33 113.17 145.26 114.5 145.26H214.15C215.48 145.26 216.55 146.33 216.55 147.66C216.55 148.98 215.48 150.06 214.15 150.06Z" fill="#C4C4C4"/>
<path d="M206.8 148.47H200.74C200.27 148.47 199.9 148.09 199.9 147.63C199.9 147.16 200.28 146.79 200.74 146.79H206.8C207.27 146.79 207.64 147.17 207.64 147.63C207.64 148.09 207.27 148.47 206.8 148.47Z" fill="white"/>
<path d="M210.94 148.54C211.426 148.54 211.82 148.146 211.82 147.66C211.82 147.174 211.426 146.78 210.94 146.78C210.454 146.78 210.06 147.174 210.06 147.66C210.06 148.146 210.454 148.54 210.94 148.54Z" fill="white"/>
<path d="M61.69 122.96C61.69 122.96 90.45 101.01 98.86 89.63C98.86 89.63 96.54 78.5 99.86 75.36C103.18 72.22 106.6 75.08 106.6 75.08C106.6 75.08 111.93 71.01 116.05 75.59C116.05 75.59 119.28 75.45 119.56 78.86C119.56 78.86 122.51 79.23 121.9 83.12C121.9 83.12 123.44 82.92 122.75 87.52C122.06 92.12 106.26 121.15 106.26 121.15L61.69 122.96Z" fill="white"/>
<path d="M60.76 123.3L61.51 122.73C61.8 122.51 90.16 100.81 98.54 89.57C98.28 88.24 96.42 78.22 99.66 75.16C102.68 72.3 105.82 74.18 106.61 74.73C107.6 74.06 112.39 71.21 116.19 75.32C116.84 75.34 119.47 75.63 119.84 78.64C120.23 78.74 121.01 79.03 121.59 79.8C122.17 80.58 122.39 81.62 122.24 82.91C122.36 82.95 122.49 83.03 122.62 83.16C123.25 83.8 123.4 85.29 123.06 87.59C122.37 92.19 107.18 120.14 106.54 121.32L106.46 121.47L106.29 121.48L60.76 123.3ZM103.29 74.19C102.31 74.19 101.18 74.53 100.07 75.59C96.91 78.58 99.13 89.47 99.15 89.58L99.18 89.71L99.1 89.82C91.52 100.07 67.19 119.1 62.62 122.64L106.08 120.89C107.3 118.64 121.81 91.83 122.46 87.5C122.86 84.8 122.48 83.89 122.21 83.6C122.06 83.43 121.93 83.44 121.93 83.44L121.57 83.45L121.61 83.09C121.81 81.84 121.64 80.86 121.12 80.16C120.49 79.32 119.54 79.18 119.53 79.18L119.29 79.15L119.27 78.91C119.02 75.83 116.2 75.9 116.07 75.91L115.93 75.92L115.84 75.82C114.21 74.01 112.2 73.37 109.86 73.93C108.09 74.36 106.8 75.33 106.79 75.34L106.6 75.48L106.42 75.33C106.33 75.24 105.02 74.19 103.29 74.19Z" fill="black"/>
<path d="M112.8 93.38C112.31 93.38 111.83 93.12 111.38 92.6C110.23 91.26 110.87 87.64 112.69 85.16C114.86 82.21 118.14 81.39 121.7 82.92C121.85 82.98 121.92 83.16 121.86 83.31C121.79 83.46 121.62 83.53 121.47 83.47C116.98 81.54 114.35 83.93 113.18 85.52C111.42 87.92 110.97 91.21 111.84 92.22C112.2 92.63 112.53 92.82 112.87 92.79C113.78 92.72 114.74 91.14 115.58 89.74C115.83 89.33 116.08 88.92 116.32 88.55C116.89 87.69 117.55 87.19 118.28 87.05C119.19 86.88 119.86 87.34 119.89 87.36C120.02 87.45 120.06 87.64 119.96 87.77C119.87 87.9 119.68 87.94 119.55 87.85C119.54 87.85 119.04 87.51 118.38 87.64C117.81 87.75 117.29 88.17 116.81 88.88C116.57 89.24 116.33 89.64 116.08 90.05C115.11 91.64 114.11 93.28 112.91 93.38C112.87 93.38 112.83 93.38 112.8 93.38Z" fill="black"/>
<path d="M110.91 90.59C110.86 90.59 110.82 90.58 110.77 90.56C110.15 90.23 108.99 89.22 108.54 87.48C108.23 86.3 108.19 84.39 109.73 82.03C112.98 77.04 119.55 78.58 119.62 78.59C119.78 78.63 119.88 78.79 119.84 78.95C119.8 79.11 119.64 79.2 119.48 79.17C119.42 79.15 113.25 77.73 110.23 82.35C109.09 84.1 108.71 85.78 109.11 87.33C109.51 88.87 110.54 89.77 111.04 90.03C111.19 90.11 111.24 90.29 111.16 90.43C111.12 90.53 111.02 90.59 110.91 90.59Z" fill="black"/>
<path d="M109 88.21C108.95 88.21 108.91 88.2 108.86 88.18C108.73 88.11 105.72 86.45 106.68 81.45C107.63 76.45 115.48 75.4 115.82 75.36C115.99 75.34 116.13 75.45 116.15 75.62C116.17 75.78 116.06 75.93 115.89 75.95C115.81 75.96 108.14 76.99 107.26 81.56C106.39 86.11 109.03 87.6 109.14 87.66C109.28 87.74 109.34 87.92 109.26 88.06C109.21 88.16 109.1 88.21 109 88.21Z" fill="black"/>
<path d="M101.99 94.78C101.93 94.78 101.88 94.76 101.82 94.73C101.7 94.65 98.81 92.68 98.56 89.66C98.55 89.5 98.67 89.35 98.83 89.34C98.99 89.33 99.14 89.45 99.15 89.61C99.38 92.35 102.13 94.22 102.15 94.24C102.29 94.33 102.32 94.52 102.23 94.65C102.18 94.73 102.09 94.78 101.99 94.78Z" fill="black"/>
<path d="M106.63 91.97C106.54 91.97 106.45 91.93 106.39 91.85C106.29 91.72 106.31 91.53 106.44 91.43C106.87 91.1 109.04 89.43 109.92 89.48C110.08 89.49 110.21 89.63 110.2 89.79C110.19 89.95 110.06 90.09 109.89 90.07C109.89 90.07 109.88 90.07 109.87 90.07C109.37 90.07 107.78 91.13 106.8 91.89C106.76 91.95 106.69 91.97 106.63 91.97Z" fill="black"/>
<path d="M101.03 80.98C100.88 80.98 100.75 80.87 100.74 80.72C100.73 80.62 100.63 79.75 101.1 79.24C101.32 79 101.63 78.87 102 78.89C102.46 78.91 102.89 79.15 103.38 79.42C104.31 79.94 105.37 80.53 107.01 79.93C107.16 79.87 107.34 79.95 107.39 80.11C107.45 80.26 107.37 80.44 107.21 80.49C105.32 81.19 104.03 80.47 103.08 79.95C102.65 79.71 102.28 79.5 101.97 79.49C101.78 79.48 101.63 79.53 101.53 79.65C101.29 79.92 101.29 80.47 101.32 80.66C101.34 80.82 101.22 80.97 101.06 80.99C101.06 80.98 101.04 80.98 101.03 80.98Z" fill="black"/>
<path d="M108.41 78.71C108.26 78.71 108.14 78.6 108.12 78.45C108.12 78.43 107.8 76.2 106.44 75.33C106.3 75.24 106.26 75.06 106.35 74.92C106.44 74.78 106.62 74.74 106.76 74.83C108.36 75.84 108.69 78.27 108.71 78.37C108.73 78.53 108.62 78.68 108.45 78.7C108.44 78.71 108.42 78.71 108.41 78.71Z" fill="black"/>
<path d="M89.49 2.26001C70.43 1.02001 65.97 15.04 62.27 21.48C58.57 27.93 47.46 37.24 28.72 38.56C9.97 39.87 9.97 58.38 9.85 71.28C9.73 84.18 3.55 100.04 0.889999 108.54C-1.48 116.09 2.32 137.68 23.1 137.56C43.88 137.44 104.26 14.67 104.26 14.67C104.26 14.67 99.49 2.91001 89.49 2.26001Z" fill="#6368F1"/>
<path d="M79.08 26.73C79.08 26.73 84.88 21.78 85.66 3.3C85.72 1.95 86.69 0.789997 88.02 0.549997C89.94 0.199997 92.58 0.349998 93.88 3.27C96.06 8.17 81.77 28.9 81.77 28.9L79.08 26.73Z" fill="#FFFF00"/>
<path d="M81.83 29.34L78.61 26.74L78.88 26.51C78.89 26.5 80.32 25.24 81.83 21.77C83.22 18.56 84.96 12.75 85.36 3.3C85.42 1.81 86.52 0.530005 87.96 0.270005C90.03 -0.109995 92.78 0.0900042 94.15 3.16C96.38 8.16 82.6 28.23 82.01 29.08L81.83 29.34ZM79.53 26.71L81.71 28.47C82.48 27.34 85.55 22.76 88.39 17.78C93.78 8.31 94.2 4.73001 93.61 3.40001C92.4 0.680006 89.93 0.510003 88.08 0.850003C86.91 1.06 86.02 2.1 85.97 3.32C85.27 19.72 80.68 25.5 79.53 26.71Z" fill="black"/>
<path d="M108.2 28.9C108.2 28.9 108.2 28.9 108.27 38.86C108.34 48.68 94.81 44.53 94.41 44.42L94.3 44.55C92.81 45.97 91.6 48.05 90.64 50.47H90.63C86.77 60.18 86.39 75.37 86.39 75.37C86.39 75.37 59.2 60.93 64.55 55.85C69.9 50.76 76.38 36.59 76.38 36.59C76.38 36.59 67.89 33.51 72.37 27.03C75.51 22.48 82.46 28.17 82.46 28.17C88.88 27.3 96.5 21.15 96.5 21.15C96.5 21.15 96.03 24.29 97.83 24.03C99.63 23.76 101.78 19.02 101.97 17.81C102.17 16.61 99.77 17.14 100.1 16.88C100.43 16.61 102.95 12.94 102.95 12.94C102.95 12.94 104.78 15.55 106.19 20.5C107.59 25.44 108.66 23.84 109.99 25.78C111.34 27.7 108.2 28.9 108.2 28.9Z" fill="white"/>
<path d="M86.67 75.85L86.24 75.62C85.35 75.15 64.41 63.96 63.57 57.8C63.45 56.95 63.71 56.21 64.33 55.62C69.16 51.03 75.02 38.76 75.96 36.74C74.97 36.32 71.85 34.82 70.98 32.08C70.46 30.45 70.84 28.69 72.12 26.85C72.85 25.8 73.83 25.18 75.03 25.01C78.18 24.55 81.87 27.32 82.54 27.85C88.78 26.94 96.23 20.97 96.31 20.91L96.9 20.43L96.79 21.18C96.72 21.67 96.64 23.04 97.14 23.54C97.3 23.7 97.51 23.75 97.78 23.72C99.32 23.49 101.47 18.98 101.67 17.74C101.7 17.59 101.66 17.52 101.63 17.49C101.44 17.26 100.79 17.25 100.45 17.25C100.1 17.24 99.87 17.24 99.79 17L99.72 16.8L99.91 16.62C100.12 16.44 101.5 14.49 102.7 12.74L102.94 12.39L103.19 12.74C103.27 12.85 105.07 15.45 106.47 20.39C107.35 23.5 108.06 23.9 108.81 24.33C109.24 24.57 109.73 24.85 110.23 25.58C110.6 26.12 110.7 26.66 110.54 27.19C110.22 28.22 108.97 28.87 108.48 29.09L108.55 38.85C108.57 41.23 107.8 43.02 106.27 44.17C102.72 46.84 96.12 45.21 94.48 44.74C93.11 46.04 91.91 48 90.89 50.56L90.81 50.75C87.08 60.31 86.67 75.21 86.66 75.36L86.67 75.85ZM75.74 25.57C75.53 25.57 75.32 25.58 75.12 25.61C74.09 25.76 73.24 26.29 72.62 27.2C71.46 28.88 71.1 30.47 71.56 31.91C72.49 34.83 76.44 36.29 76.48 36.31L76.78 36.42L76.65 36.71C76.38 37.29 70.08 50.99 64.75 56.06C64.27 56.52 64.08 57.06 64.17 57.73C64.91 63.13 83.09 73.24 86.11 74.88C86.22 72.21 86.9 59.04 90.36 50.36L90.44 50.17C91.48 47.61 92.71 45.64 94.1 44.33L94.32 44.08L94.5 44.13C95.84 44.52 102.51 46.3 105.94 43.71C107.31 42.68 107.99 41.05 107.98 38.87L107.9 28.7L108.09 28.63C108.11 28.62 109.69 28.01 109.99 27.03C110.1 26.68 110.02 26.32 109.76 25.93C109.33 25.31 108.95 25.09 108.54 24.86C107.72 24.39 106.86 23.91 105.92 20.57C104.84 16.77 103.49 14.35 102.96 13.47C102.36 14.34 101.28 15.9 100.68 16.67C101.17 16.68 101.79 16.74 102.11 17.12C102.22 17.26 102.34 17.49 102.28 17.85C102.09 19 99.94 24.01 97.89 24.32C97.43 24.39 97.03 24.27 96.74 23.98C96.22 23.45 96.14 22.48 96.16 21.81C94.3 23.23 88.03 27.73 82.51 28.47L82.38 28.49L82.28 28.41C82.24 28.37 78.77 25.57 75.74 25.57Z" fill="black"/>
<path d="M94.39 44.1C92.9 45.52 91.69 47.6 90.73 50.02H90.72C82.57 45.16 84.44 36.96 85.62 39.32C86.81 41.69 94.39 44.1 94.39 44.1Z" fill="black"/>
<path d="M22.33 110.01C22.33 110.01 1.41999 94.93 13.64 89.76C25.86 84.59 45.55 68.19 52.71 61.92C59.86 55.65 73.32 47.83 76.39 57.41C79.45 66.98 82.42 71.16 86.77 72.59C86.77 72.59 83.74 114.96 86.77 120.13L90.65 150.71C90.65 150.71 44 160.77 15.09 147.04C15.09 147.04 30.04 119.35 31.61 115.24L22.33 110.01Z" fill="white"/>
<path d="M54.89 154.56C42.15 154.56 27 153.03 14.95 147.31L14.67 147.18L14.82 146.9C14.97 146.63 29.26 120.14 31.23 115.37L22.16 110.25C21.61 109.86 8.8 100.54 9.54 93.93C9.76 92.01 11.1 90.51 13.52 89.48C27.23 83.68 49.96 63.92 52.51 61.69C57.12 57.65 66.5 51.24 72.43 52.89C74.48 53.46 75.91 54.95 76.67 57.32C79.66 66.68 82.52 70.88 86.86 72.31L87.08 72.38L87.06 72.61C87.03 73.03 84.07 114.95 87.02 119.98L87.06 120.09L90.97 150.94L90.7 151C90.58 151.03 78.84 153.53 63.71 154.32C60.97 154.47 58 154.56 54.89 154.56ZM15.49 146.91C23.76 150.78 38.78 155.04 63.68 153.74C77.5 153.02 88.48 150.86 90.31 150.49L86.47 120.24C83.56 114.97 86.18 76.51 86.44 72.81C82.02 71.25 79.1 66.92 76.09 57.51C75.4 55.35 74.11 53.99 72.26 53.48C67.32 52.11 58.75 57.02 52.89 62.16C50.34 64.4 27.54 84.21 13.74 90.05C11.53 90.99 10.31 92.32 10.12 94.02C9.43 100.19 22 109.43 22.48 109.78L31.95 115.12L31.86 115.36C30.38 119.25 17.14 143.84 15.49 146.91Z" fill="black"/>
<path d="M61.93 121.35L61.47 120.98C61.6 120.82 74.68 104.04 77.42 61.21L78.01 61.25C76.57 83.73 72.29 98.86 68.95 107.6C65.31 117.08 61.96 121.31 61.93 121.35Z" fill="black"/>
<path d="M11.92 92.25C9.56999 94.66 14.63 102.09 22.46 108.3L26.31 98.99C26.31 98.99 16.36 87.7 11.92 92.25Z" fill="black"/>
<path d="M26.31 99.47C26.31 99.47 -0.800011 150.38 54.22 155.49C62.93 155.96 82.43 155.18 102.05 146.98C121.66 138.78 124.55 137.54 124.55 137.54C124.55 137.54 124.67 140.7 126.88 140.76C129.09 140.82 129.62 138.6 129.62 138.6C129.62 138.6 130.03 142.04 132.42 142.04C134.81 142.04 135.34 138.07 135.34 138.07C135.34 138.07 137.26 144.08 139.83 144.08C142.4 144.08 141.8 125.42 130.9 121.16C120 116.9 91.95 118.62 81.14 119.48C70.33 120.34 61.92 121.88 59.87 121.54C57.82 121.2 42.54 118.19 36.62 110.73C30.69 103.27 26.31 99.47 26.31 99.47Z" fill="white"/>
<path d="M58.27 155.89C56.36 155.89 54.97 155.83 54.2 155.79C38.26 154.31 27.64 148.84 22.63 139.54C13.68 122.94 25.92 99.56 26.05 99.33L26.23 99L26.51 99.24C26.55 99.28 30.98 103.14 36.85 110.54C43.04 118.35 59.75 121.21 59.91 121.24C60.96 121.41 63.88 121.06 67.92 120.57C71.54 120.13 76.05 119.58 81.11 119.18C92.49 118.28 120.13 116.64 131 120.88C140.18 124.46 142.03 137.86 141.18 142.34C140.86 144.02 140.26 144.37 139.82 144.37C137.72 144.37 136.09 140.9 135.4 139.14C135.05 140.39 134.22 142.33 132.41 142.33C130.61 142.33 129.83 140.65 129.51 139.56C129.1 140.25 128.31 141.07 126.86 141.05C125.1 141 124.43 139.2 124.27 137.97C123.01 138.51 118.09 140.58 102.15 147.25C83.99 154.86 66.44 155.89 58.27 155.89ZM26.4 99.95C24.94 102.88 14.94 124.02 23.16 139.26C28.07 148.37 38.54 153.74 54.25 155.2C58.29 155.42 79.64 156.04 101.93 146.72C121.31 138.62 124.39 137.29 124.42 137.28L124.82 137.11L124.84 137.54C124.84 137.57 124.97 140.42 126.88 140.47C128.82 140.49 129.3 138.62 129.32 138.54L129.71 136.94L129.91 138.58C129.91 138.61 130.32 141.76 132.41 141.76C134.52 141.76 135.03 138.09 135.03 138.05L135.2 136.74L135.6 138C136.12 139.61 137.88 143.8 139.81 143.8C140.03 143.8 140.37 143.4 140.59 142.25C141.41 137.9 139.63 124.91 130.77 121.45C120.01 117.25 92.48 118.89 81.14 119.79C76.09 120.19 71.59 120.74 67.97 121.18C63.73 121.7 60.93 122.04 59.79 121.85C59.62 121.82 42.69 118.92 36.36 110.93C31.39 104.63 27.46 100.92 26.4 99.95Z" fill="black"/>
<path d="M48.53 129.3C48.47 129.3 48.41 129.28 48.36 129.25C48.22 129.16 48.19 128.97 48.28 128.84C48.32 128.78 52.81 122.37 59.8 121.25C59.96 121.23 60.11 121.33 60.14 121.5C60.17 121.66 60.06 121.82 59.89 121.84C53.15 122.92 48.81 129.12 48.76 129.18C48.72 129.26 48.63 129.3 48.53 129.3Z" fill="black"/>
<path d="M129.61 138.9C129.59 138.9 129.57 138.9 129.56 138.9C129.4 138.87 129.29 138.72 129.32 138.55C130.19 133.77 129.61 130.27 127.58 128.14C124.99 125.42 120.85 125.93 120.81 125.94C120.64 125.96 120.5 125.85 120.48 125.68C120.46 125.52 120.57 125.37 120.74 125.35C120.92 125.33 125.21 124.79 128.02 127.73C130.19 130 130.82 133.68 129.92 138.66C129.88 138.8 129.75 138.9 129.61 138.9Z" fill="black"/>
<path d="M135.23 138.9C135.21 138.9 135.18 138.9 135.16 138.89C135 138.85 134.9 138.69 134.94 138.53C136.44 132.12 135.22 127.81 133.92 125.32C132.52 122.63 130.74 121.42 130.72 121.41C130.58 121.32 130.55 121.13 130.64 121C130.73 120.86 130.91 120.82 131.05 120.92C131.12 120.97 138.49 126 135.52 138.67C135.49 138.81 135.37 138.9 135.23 138.9Z" fill="black"/>
<path d="M124.54 137.84C124.38 137.84 124.24 137.71 124.24 137.55C124.24 137.53 124.22 135.68 124.03 134.75C124 134.61 123.94 134.51 123.83 134.44C123.51 134.23 122.91 134.3 122.71 134.34C122.55 134.37 122.39 134.27 122.36 134.11C122.33 133.95 122.43 133.79 122.59 133.76C122.69 133.74 123.58 133.56 124.16 133.94C124.4 134.1 124.57 134.34 124.62 134.63C124.82 135.62 124.84 137.46 124.84 137.54C124.84 137.71 124.71 137.84 124.54 137.84Z" fill="black"/>
<path d="M104.84 23.61C105.2 22.01 103.31 22.58 102.72 23.41C102.13 24.25 99.27 26.46 98.83 26.46C98.39 26.46 103.86 28 104.84 23.61Z" fill="#232323"/>
<path d="M104.17 36.41C103.07 36.41 102.2 36.1 101.58 35.49C100.41 34.34 100.56 32.57 100.55 32.5C100.54 32.19 101.02 32.18 101.19 32.19C101.35 32.2 101.47 32.35 101.46 32.51C101.46 32.53 101.03 34.12 102 35.07C102.63 35.68 103.59 35.92 104.85 35.78C105.02 35.77 105.16 35.88 105.18 36.04C105.2 36.2 105.08 36.35 104.92 36.37C104.66 36.4 104.41 36.41 104.17 36.41Z" fill="black"/>
<path d="M82.08 33.96C81.94 33.96 81.81 33.86 81.79 33.71C81.1 29.73 75.31 29.97 75.25 29.97C75.09 29.98 74.95 29.85 74.94 29.69C74.93 29.53 75.06 29.39 75.22 29.38C75.28 29.37 81.6 29.12 82.37 33.62C82.4 33.78 82.29 33.94 82.13 33.96C82.12 33.96 82.1 33.96 82.08 33.96Z" fill="black"/>
<path d="M83.75 38.53H83.74C83.53 38.52 78.53 38.26 76.65 36.98C76.51 36.89 76.48 36.7 76.57 36.57C76.66 36.44 76.85 36.4 76.98 36.49C78.72 37.68 83.71 37.94 83.76 37.94C83.92 37.95 84.05 38.09 84.04 38.25C84.04 38.41 83.91 38.53 83.75 38.53Z" fill="black"/>
</svg>
